HIERARCHY
ROOT hip
{
  OFFSET 0 0 0
  CHANNELS 6 Xposition Yposition Zposition Zrotation Yrotation Xrotation
  JOINT abdomen
  {
    OFFSET 0 20.6881 -0.73152
    CHANNELS 3 Zrotation Xrotation Yrotation
    JOINT chest
    {
      OFFSET 0 11.7043 -0.48768
      CHANNELS 3 Zrotation Xrotation Yrotation
      JOINT neck
      {
        OFFSET 0 22.1894 -2.19456
        CHANNELS 3 Zrotation Xrotation Yrotation
        JOINT head
        {
          OFFSET -0.24384 7.07133 1.2192
          CHANNELS 3 Zrotation Xrotation Yrotation
          JOINT leftEye
          {
            OFFSET 4.14528 8.04674 8.04672
            CHANNELS 3 Zrotation Xrotation Yrotation
            End Site
            {
              OFFSET 1 0 0
            }
          }
          JOINT rightEye
          {
            OFFSET -3.6576 8.04674 8.04672
            CHANNELS 3 Zrotation Xrotation Yrotation
            End Site
            {
              OFFSET 1 0 0
            }
          }
        }
      }
      JOINT rCollar
      {
        OFFSET -2.68224 19.2634 -4.8768
        CHANNELS 3 Zrotation Xrotation Yrotation
        JOINT rShldr
        {
          OFFSET -8.77824 -1.95073 1.46304
          CHANNELS 3 Zrotation Xrotation Yrotation
          JOINT rForeArm
          {
            OFFSET -28.1742 -1.7115 0.48768
            CHANNELS 3 Zrotation Xrotation Yrotation
            JOINT rHand
            {
              OFFSET -22.5879 0.773209 7.07136
              CHANNELS 3 Zrotation Xrotation Yrotation
              JOINT rThumb1
              {
                OFFSET -1.2192 -0.487915 3.41376
                CHANNELS 3 Zrotation Xrotation Yrotation
                JOINT rThumb2
                {
                  OFFSET -3.37035 -0.52449 3.41376
                  CHANNELS 3 Zrotation Xrotation Yrotation
                  End Site
                  {
                    OFFSET -1.78271 -1.18214 1.43049
                  }
                }
              }
              JOINT rIndex1
              {
                OFFSET -7.75947 0.938293 5.60832
                CHANNELS 3 Zrotation Xrotation Yrotation
                JOINT rIndex2
                {
                  OFFSET -2.54057 -0.884171 1.56538
                  CHANNELS 3 Zrotation Xrotation Yrotation
                  End Site
                  {
                    OFFSET -1.62519 -0.234802 1.16502
                  }
                }
              }
              JOINT rMid1
              {
                OFFSET -8.24714 1.18213 3.41376
                CHANNELS 3 Zrotation Xrotation Yrotation
                JOINT rMid2
                {
                  OFFSET -3.10165 -0.590103 1.0647
                  CHANNELS 3 Zrotation Xrotation Yrotation
                  End Site
                  {
                    OFFSET -2.48547 -0.328903 0.83742
                  }
                }
              }
              JOINT rRing1
              {
                OFFSET -8.82822 0.546677 1.51678
                CHANNELS 3 Zrotation Xrotation Yrotation
                JOINT rRing2
                {
                  OFFSET -2.60934 -0.819778 -0.0198488
                  CHANNELS 3 Zrotation Xrotation Yrotation
                  End Site
                  {
                    OFFSET -2.33842 -0.294052 0.168128
                  }
                }
              }
              JOINT rPinky1
              {
                OFFSET -8.27202 -0.0477905 -0.4584
                CHANNELS 3 Zrotation Xrotation Yrotation
                JOINT rPinky2
                {
                  OFFSET -1.82734 -0.647385 -0.700984
                  CHANNELS 3 Zrotation Xrotation Yrotation
                  End Site
                  {
                    OFFSET -1.69225 -0.51767 -0.607171
                  }
                }
              }
            }
          }
        }
      }
      JOINT lCollar
      {
        OFFSET 2.68224 19.2634 -4.8768
        CHANNELS 3 Zrotation Xrotation Yrotation
        JOINT lShldr
        {
          OFFSET 8.77824 -1.95073 1.46304
          CHANNELS 3 Zrotation Xrotation Yrotation
          JOINT lForeArm
          {
            OFFSET 28.1742 -1.7115 0.48768
            CHANNELS 3 Zrotation Xrotation Yrotation
            JOINT lHand
            {
              OFFSET 22.5879 0.773209 7.07136
              CHANNELS 3 Zrotation Xrotation Yrotation
              JOINT lThumb1
              {
                OFFSET 1.2192 -0.487915 3.41376
                CHANNELS 3 Zrotation Xrotation Yrotation
                JOINT lThumb2
                {
                  OFFSET 3.37035 -0.52449 3.41376
                  CHANNELS 3 Zrotation Xrotation Yrotation
                  End Site
                  {
                    OFFSET 1.78271 -1.18214 1.43049
                  }
                }
              }
              JOINT lIndex1
              {
                OFFSET 7.75947 0.938293 5.60832
                CHANNELS 3 Zrotation Xrotation Yrotation
                JOINT lIndex2
                {
                  OFFSET 2.54057 -0.884171 1.56538
                  CHANNELS 3 Zrotation Xrotation Yrotation
                  End Site
                  {
                    OFFSET 1.62519 -0.234802 1.16502
                  }
                }
              }
              JOINT lMid1
              {
                OFFSET 8.24714 1.18213 3.41376
                CHANNELS 3 Zrotation Xrotation Yrotation
                JOINT lMid2
                {
                  OFFSET 3.10165 -0.590103 1.0647
                  CHANNELS 3 Zrotation Xrotation Yrotation
                  End Site
                  {
                    OFFSET 2.48547 -0.328903 0.83742
                  }
                }
              }
              JOINT lRing1
              {
                OFFSET 8.82822 0.546677 1.51678
                CHANNELS 3 Zrotation Xrotation Yrotation
                JOINT lRing2
                {
                  OFFSET 2.60934 -0.819778 -0.0198488
                  CHANNELS 3 Zrotation Xrotation Yrotation
                  End Site
                  {
                    OFFSET 2.33842 -0.294052 0.168128
                  }
                }
              }
              JOINT lPinky1
              {
                OFFSET 8.27202 -0.0477905 -0.4584
                CHANNELS 3 Zrotation Xrotation Yrotation
                JOINT lPinky2
                {
                  OFFSET 1.82734 -0.647385 -0.700984
                  CHANNELS 3 Zrotation Xrotation Yrotation
                  End Site
                  {
                    OFFSET 1.69225 -0.51767 -0.607171
                  }
                }
              }
            }
          }
        }
      }
    }
  }
  JOINT rButtock
  {
    OFFSET -8.77824 4.35084 1.2192
    CHANNELS 3 Zrotation Xrotation Yrotation
    JOINT rThigh
    {
      OFFSET 0 -1.70687 -2.19456
      CHANNELS 3 Zrotation Xrotation Yrotation
      JOINT rShin
      {
        OFFSET 0 -36.8199 0.73152
        CHANNELS 3 Zrotation Xrotation Yrotation
        JOINT rFoot
        {
          OFFSET 0.73152 -45.1104 -5.12064
          CHANNELS 3 Zrotation Xrotation Yrotation
          End Site
          {
            OFFSET -1.1221 -3.69964 12.103
          }
        }
      }
    }
  }
  JOINT lButtock
  {
    OFFSET 8.77824 4.35084 1.2192
    CHANNELS 3 Zrotation Xrotation Yrotation
    JOINT lThigh
    {
      OFFSET 0 -1.70687 -2.19456
      CHANNELS 3 Zrotation Xrotation Yrotation
      JOINT lShin
      {
        OFFSET 0 -36.8199 0.73152
        CHANNELS 3 Zrotation Xrotation Yrotation
        JOINT lFoot
        {
          OFFSET -0.73152 -45.1104 -5.12064
          CHANNELS 3 Zrotation Xrotation Yrotation
          End Site
          {
            OFFSET 1.1221 -3.69964 12.103
          }
        }
      }
    }
  }
}
MOTION
Frames:	4
Frame Time:	0.03333
-2.300700027961284 58.29079818725586 18.108999844640493 9.582899808883667 21.662700176239014 3.872700110077858 -17.079200595617294 14.259199798107147 -2.8929099440574646 5.678719952702522 -9.830259829759598 -0.8738780301064253 -7.253530025482178 15.587700605392456 -8.937389999628067 10.12329988181591 -26.152398884296417 -15.243499428033829 0.0 0.0 0.0 0.0 0.0 0.0 0.0 0.0 0.0 60.93439757823944 34.40220057964325 1.7504800111055374 -19.220000356435776 -12.061299830675125 36.81839883327484 -0.17750100698322058 11.920100301504135 1.7001000791788101 1.1721823511834373e-09 -4.115747742616804e-09 1.212470124301035e-09 2.034212798207591e-09 -7.0957639763946645e-09 2.0821744328713976e-09 1.1721823511834373e-09 -4.115747742616804e-09 1.212470124301035e-09 7.7309102565050125 5.474880114197731 0.41731400415301323 1.1721823511834373e-09 -4.115747742616804e-09 1.212470124301035e-09 2.905540131032467 0.9651830233633518 0.102901995414868 1.1721823511834373e-09 -4.115747742616804e-09 1.212470124301035e-09 10.27859978377819 0.7318009994924068 0.025912300043273717 1.1721823511834373e-09 -4.115747742616804e-09 1.212470124301035e-09 2.221670038998127 -0.733487019315362 -0.2089200052432716 0.0 0.0 0.0 -65.29990196228027 40.92649966478348 -16.87059983611107 15.360300242900848 -8.105789870023727 -28.33339959383011 0.06108639878220856 7.035819813609123 -0.9938679914921522 1.8404477941658115e-09 4.2871306504821405e-09 1.3659473552252166e-09 3.1884894724498736e-09 7.410392299789237e-09 2.348201633139979e-09 1.8404477941658115e-09 4.2871306504821405e-09 1.3659473552252166e-09 -7.7309102565050125 5.474880114197731 -0.41731400415301323 1.8404477941658115e-09 4.2871306504821405e-09 1.3659473552252166e-09 -2.905540131032467 0.9651830233633518 -0.102901995414868 1.8404477941658115e-09 4.2871306504821405e-09 1.3659473552252166e-09 -10.27859978377819 0.7318009994924068 -0.025912300043273717 1.8404477941658115e-09 4.2871306504821405e-09 1.3659473552252166e-09 -2.221670038998127 -0.733487019315362 0.2089200052432716 0.0 0.0 0.0 -61.16520166397095 -53.71539831161499 -54.22660052776337 -2.526960074901581 72.64509916305542 2.939930073916912 1.9748300313949585 -2.687059957534075 14.819199442863464 0.0 0.0 0.0 11.47670030593872 13.602199405431747 6.7429400235414505 -0.11323499609716237 34.41229909658432 -2.5731299445033073 11.738300174474716 -20.565299838781357 31.738901138305664
-2.3113000276498497 58.25920104980469 18.14209984615445 9.595999717712402 21.715799868106842 3.7822000309824944 -17.15979963541031 14.51899990439415 -2.921219989657402 5.715719684958458 -9.963330253958702 -0.8860059734433889 -7.329150214791298 15.564299672842026 -8.936199769377708 10.303200334310532 -26.131300628185272 -15.203800052404404 0.0 0.0 0.0 0.0 0.0 0.0 0.0 0.0 0.0 60.933598279953 34.5263010263443 1.918529961258173 -19.1211998462677 -11.945099830627441 36.58680081367493 -0.17638300778344274 11.8831005692482 1.694680005311966 -1.326938559031987e-09 1.4836132322670892e-09 -4.4508396968012676e-10 -2.2996005100139882e-09 2.5349322640977334e-09 -7.571543392259628e-10 -1.326938559031987e-09 1.4836132322670892e-09 -4.4508396968012676e-10 7.7309102565050125 5.474880114197731 0.41731400415301323 -1.326938559031987e-09 1.4836132322670892e-09 -4.4508396968012676e-10 2.905540131032467 0.9651830233633518 0.102901995414868 -1.326938559031987e-09 1.4836132322670892e-09 -4.4508396968012676e-10 10.27859978377819 0.7318009994924068 0.025912300043273717 -1.326938559031987e-09 1.4836132322670892e-09 -4.4508396968012676e-10 2.221670038998127 -0.733487019315362 -0.2089200052432716 0.0 0.0 0.0 -65.36159813404083 40.932199358940125 -16.81329980492592 15.342400521039963 -8.088840320706367 -28.29529881477356 0.06421940226573497 7.2127000987529755 -1.0191199835389853 -1.524540493846871e-09 -2.496562956366688e-09 -1.0231815394945443e-09 -2.6423663257446606e-09 -4.317826096666977e-09 -1.7598722479306161e-09 -1.524540493846871e-09 -2.496562956366688e-09 -1.0231815394945443e-09 -7.7309102565050125 5.474880114197731 -0.41731400415301323 -1.524540493846871e-09 -2.496562956366688e-09 -1.0231815394945443e-09 -2.905540131032467 0.9651830233633518 -0.102901995414868 -1.524540493846871e-09 -2.496562956366688e-09 -1.0231815394945443e-09 -10.27859978377819 0.7318009994924068 -0.025912300043273717 -1.524540493846871e-09 -2.496562956366688e-09 -1.0231815394945443e-09 -2.221670038998127 -0.733487019315362 0.2089200052432716 0.0 0.0 0.0 -61.23999774456024 -53.59150171279907 -54.226402044296265 -2.548070065677166 72.73479759693146 2.955920062959194 2.009610068053007 -2.822990119457245 14.806599766016006 0.0 0.0 0.0 11.422499567270279 13.606599569320679 6.6257596760988235 -0.11188899865373969 34.56889986991882 -2.581669930368662 11.833899468183517 -20.58579996228218 31.909698843955994
-2.33270002854988 58.22809982299805 18.17589984461665 9.563400149345398 21.803899705410004 3.681200109422207 -17.1070995926857 14.76289987564087 -2.9726701229810715 5.714510008692741 -10.092400163412094 -0.9024319890886545 -7.358830198645592 15.5628003180027 -8.942649811506271 10.406700074672699 -26.128100752830505 -15.19720047712326 0.0 0.0 0.0 0.0 0.0 0.0 0.0 0.0 0.0 60.965500473976135 34.65529918670654 2.0748700574040413 -19.026700258255005 -11.834700107574463 36.36629909276962 -0.1764519908465445 11.88540056347847 1.6950199753046036 -2.055315917459666e-09 3.1795366339792963e-09 -1.0334133548894897e-09 -3.5638691997519345e-09 5.458673513203394e-09 -1.7701040633255616e-09 -2.055315917459666e-09 3.1795366339792963e-09 -1.0334133548894897e-09 7.7309102565050125 5.474880114197731 0.41731400415301323 -2.055315917459666e-09 3.1795366339792963e-09 -1.0334133548894897e-09 2.905540131032467 0.9651830233633518 0.102901995414868 -2.055315917459666e-09 3.1795366339792963e-09 -1.0334133548894897e-09 10.27859978377819 0.7318009994924068 0.025912300043273717 -2.055315917459666e-09 3.1795366339792963e-09 -1.0334133548894897e-09 2.221670038998127 -0.733487019315362 -0.2089200052432716 0.0 0.0 0.0 -65.39470195770264 40.979400873184204 -16.746700555086136 15.34359946846962 -8.089999705553055 -28.297900557518005 0.06482529861386865 7.245510220527649 -1.0238099936395884 -2.5841728756859084e-09 -4.299920419725822e-09 -1.50407686305698e-09 -4.477698212212999e-09 -7.438529792125337e-09 -2.5835333872237243e-09 -2.5841728756859084e-09 -4.299920419725822e-09 -1.50407686305698e-09 -7.7309102565050125 5.474880114197731 -0.41731400415301323 -2.5841728756859084e-09 -4.299920419725822e-09 -1.50407686305698e-09 -2.905540131032467 0.9651830233633518 -0.102901995414868 -2.5841728756859084e-09 -4.299920419725822e-09 -1.50407686305698e-09 -10.27859978377819 0.7318009994924068 -0.025912300043273717 -2.5841728756859084e-09 -4.299920419725822e-09 -1.50407686305698e-09 -2.221670038998127 -0.733487019315362 0.2089200052432716 0.0 0.0 0.0 -61.171998381614685 -53.4699010848999 -54.19680118560791 -2.5638900697231293 72.80179917812347 2.966349832713604 2.0371499843895435 -2.9307998344302177 14.788500219583511 0.0 0.0 0.0 11.491099745035172 13.579499870538712 6.501279696822166 -0.10995599557645619 34.74869906902313 -2.589929960668087 11.92179948091507 -20.601000040769577 32.05940097570419
-2.365300029050559 58.207000732421875 18.201599843800068 9.458199888467789 21.924699693918228 3.5510998964309692 -16.920800060033798 14.990800470113754 -3.0473200231790543 5.675070136785507 -10.217499732971191 -0.9231600165367126 -7.342580035328865 15.583199858665466 -8.956750184297562 10.433699861168861 -26.142700016498566 -15.22360011935234 0.0 0.0 0.0 0.0 0.0 0.0 0.0 0.0 0.0 61.03000223636627 34.78910118341446 2.219490073621273 -18.936599493026733 -11.730300486087799 36.15679979324341 -0.1777100097388029 11.926899701356888 1.7011099308729172 -1.0129497240995988e-09 9.745804163685534e-10 -5.525180313270539e-10 -1.758593271006248e-09 1.6754597709223162e-09 -9.464429240324534e-10 -1.0129497240995988e-09 9.745804163685534e-10 -5.525180313270539e-10 7.7309102565050125 5.474880114197731 0.41731400415301323 -1.0129497240995988e-09 9.745804163685534e-10 -5.525180313270539e-10 2.905540131032467 0.9651830233633518 0.102901995414868 -1.0129497240995988e-09 9.745804163685534e-10 -5.525180313270539e-10 10.27859978377819 0.7318009994924068 0.025912300043273717 -1.0129497240995988e-09 9.745804163685534e-10 -5.525180313270539e-10 2.221670038998127 -0.733487019315362 -0.2089200052432716 0.0 0.0 0.0 -65.39940118789673 41.06809884309769 -16.670700162649155 15.364200174808502 -8.10927003622055 -28.341298699378967 0.06283279974013567 7.1342602372169495 -1.0079200007021427 -1.339728328275669e-09 -1.128057647292735e-09 -7.16227077646181e-11 -2.3162272100307746e-09 -1.9466028788883705e-09 -1.1254996934439987e-10 -1.339728328275669e-09 -1.128057647292735e-09 -7.16227077646181e-11 -7.7309102565050125 5.474880114197731 -0.41731400415301323 -1.339728328275669e-09 -1.128057647292735e-09 -7.16227077646181e-11 -2.905540131032467 0.9651830233633518 -0.102901995414868 -1.339728328275669e-09 -1.128057647292735e-09 -7.16227077646181e-11 -10.27859978377819 0.7318009994924068 -0.025912300043273717 -1.339728328275669e-09 -1.128057647292735e-09 -7.16227077646181e-11 -2.221670038998127 -0.733487019315362 0.2089200052432716 0.0 0.0 0.0 -60.96160054206848 -53.35060179233551 -54.1383022069931 -2.5743000581860542 72.84630239009857 2.9711298644542694 2.057429999113083 -3.0104701593518257 14.76500004529953 0.0 0.0 0.0 11.682299673557281 13.520900309085846 6.369549706578255 -0.10742800310254097 34.95160013437271 -2.597929984331131 12.001800388097763 -20.611200481653214 32.187801003456116
